<?xml version="1.0" encoding="utf-8"?>
<!-- Generator: Adobe Illustrator 25.2.0, SVG Export Plug-In . SVG Version: 6.00 Build 0)  -->
<svg version="1.1" id="Layer_1" xmlns="http://www.w3.org/2000/svg" xmlns:xlink="http://www.w3.org/1999/xlink" x="0px" y="0px"
	 viewBox="0 0 477.96 124.75" style="enable-background:new 0 0 477.96 124.75;" xml:space="preserve">
<style type="text/css">
	.st0{fill:#FFFFFF;}
	.st1{fill:url(#SVGID_1_);}
	.st2{fill:none;}
	.st3{fill:url(#SVGID_3_);}
	.st4{opacity:0.65;fill:#084556;}
	.st5{fill:url(#SVGID_4_);}
	.st6{opacity:0.89;}
	.st7{clip-path:url(#SVGID_5_);}
	.st8{opacity:0.22;}
	.st9{opacity:0.23;fill:#190114;}
	.st10{fill:#EBEBEB;}
	.st11{opacity:0.35;}
	.st12{clip-path:url(#SVGID_6_);}
	.st13{fill:#9B9B9A;}
	.st14{fill:url(#SVGID_7_);}
	.st15{fill:#B0B0B0;}
	.st16{fill:url(#SVGID_9_);}
	.st17{fill:url(#SVGID_10_);}
	.st18{fill:url(#SVGID_11_);}
	.st19{fill:url(#SVGID_12_);}
	.st20{fill:url(#SVGID_13_);}
	.st21{fill:url(#SVGID_14_);}
	.st22{fill:url(#SVGID_15_);}
	.st23{fill:url(#SVGID_16_);}
	.st24{fill:url(#SVGID_17_);}
	.st25{fill:url(#SVGID_18_);}
	.st26{fill:url(#SVGID_19_);}
	.st27{fill:url(#SVGID_20_);}
	.st28{fill:url(#SVGID_21_);}
	.st29{opacity:0.22;clip-path:url(#SVGID_23_);}
	.st30{fill:url(#SVGID_24_);}
	.st31{fill:url(#SVGID_25_);}
	.st32{fill:url(#SVGID_26_);}
	.st33{fill:url(#SVGID_27_);}
	.st34{fill:url(#SVGID_28_);}
	.st35{fill:url(#SVGID_29_);}
	.st36{fill:url(#SVGID_30_);}
	.st37{fill:url(#SVGID_31_);}
	.st38{opacity:0.22;clip-path:url(#SVGID_33_);}
	.st39{fill:url(#SVGID_34_);}
	.st40{fill:url(#SVGID_35_);}
	.st41{fill:url(#SVGID_36_);}
	.st42{fill:url(#SVGID_37_);}
	.st43{fill:url(#SVGID_38_);}
	.st44{fill:url(#SVGID_39_);}
	.st45{fill:url(#SVGID_40_);}
	.st46{opacity:0.82;}
	.st47{clip-path:url(#SVGID_41_);}
	.st48{clip-path:url(#SVGID_42_);}
	.st49{clip-path:url(#SVGID_43_);}
	.st50{clip-path:url(#SVGID_44_);}
	.st51{clip-path:url(#SVGID_45_);}
	.st52{opacity:0.2;}
	.st53{fill:none;stroke:#1D1D1B;stroke-width:0.7876;stroke-miterlimit:10;}
	.st54{fill:url(#SVGID_46_);}
	.st55{fill:url(#SVGID_48_);}
	.st56{fill:url(#SVGID_49_);}
	.st57{fill:url(#SVGID_50_);}
	.st58{fill:url(#SVGID_51_);}
	.st59{fill:url(#SVGID_52_);}
	.st60{fill:url(#SVGID_54_);}
	.st61{fill:url(#SVGID_55_);}
	.st62{fill:url(#SVGID_56_);}
	.st63{fill:url(#SVGID_57_);}
	.st64{fill:url(#SVGID_58_);}
	.st65{fill:url(#SVGID_60_);}
	.st66{fill:url(#SVGID_61_);}
	.st67{fill:url(#SVGID_62_);}
	.st68{fill:url(#SVGID_63_);}
	.st69{fill:url(#SVGID_64_);}
	.st70{fill:url(#SVGID_66_);}
	.st71{fill:url(#SVGID_67_);}
	.st72{fill:url(#SVGID_68_);}
	.st73{fill:url(#SVGID_69_);}
	.st74{fill:url(#SVGID_70_);}
	.st75{fill:url(#SVGID_72_);}
	.st76{fill:url(#SVGID_73_);}
	.st77{fill:none;stroke:#1D1D1B;stroke-width:1.1203;stroke-miterlimit:10;}
	.st78{fill:#C9B99E;}
	.st79{fill:none;stroke:#1D1D1B;stroke-width:0.4061;stroke-miterlimit:10;}
	.st80{fill:url(#SVGID_74_);}
	.st81{fill:url(#SVGID_75_);}
	.st82{fill:url(#SVGID_76_);}
	.st83{fill:url(#SVGID_77_);}
	.st84{fill:url(#SVGID_78_);}
	.st85{fill:url(#SVGID_79_);}
	.st86{fill:url(#SVGID_80_);}
	.st87{fill:url(#SVGID_81_);}
	.st88{fill:url(#SVGID_82_);}
	.st89{fill:url(#SVGID_83_);}
	.st90{fill:url(#SVGID_84_);}
	.st91{opacity:0.48;}
	.st92{fill:none;stroke:#3C3C3B;stroke-miterlimit:10;}
	.st93{fill:url(#SVGID_85_);}
	.st94{fill:url(#SVGID_86_);}
	.st95{fill:url(#SVGID_87_);}
	.st96{fill:url(#SVGID_88_);}
	.st97{fill:url(#SVGID_89_);}
	.st98{fill:none;stroke:#FFFFFF;stroke-width:28;stroke-miterlimit:10;}
	.st99{clip-path:url(#SVGID_91_);}
	.st100{fill:#004D56;}
	.st101{fill:#1D1D1B;}
	.st102{fill:#2FAA66;}
	.st103{fill:#1D71B6;}
	.st104{fill:url(#SVGID_94_);}
	.st105{fill:url(#SVGID_95_);}
	.st106{fill:url(#SVGID_96_);}
	.st107{fill:url(#SVGID_97_);}
	.st108{fill:url(#SVGID_98_);}
	.st109{fill:url(#SVGID_99_);}
	.st110{fill:url(#SVGID_100_);}
	.st111{fill:url(#SVGID_101_);}
	.st112{fill:url(#SVGID_102_);}
	.st113{fill:url(#SVGID_103_);}
	.st114{stroke:#FFFFFF;stroke-width:0.75;stroke-miterlimit:10;}
	.st115{fill:url(#SVGID_104_);}
	.st116{fill:url(#SVGID_105_);}
	.st117{fill:url(#SVGID_106_);}
	.st118{fill:url(#SVGID_107_);}
	.st119{fill:url(#SVGID_108_);}
	.st120{fill:url(#SVGID_109_);}
</style>
<g>
	<g>
		<path d="M38.5,108.99V18.6c0-1.24,1.01-2.24,2.24-2.24h16.38c1.24,0,2.24,1.01,2.24,2.24v71.55c0,1.24,1.01,2.24,2.24,2.24h42.81
			c1.24,0,2.24,1.01,2.24,2.24v14.35c0,1.24-1.01,2.24-2.24,2.24H40.74C39.5,111.24,38.5,110.23,38.5,108.99z"/>
		<path d="M120.64,28.34V14.53c0-1.24,1.01-2.24,2.24-2.24h17.2c1.24,0,2.24,1.01,2.24,2.24v13.81c0,1.24-1.01,2.24-2.24,2.24h-17.2
			C121.64,30.59,120.64,29.58,120.64,28.34z M121.18,108.99V40.83c0-1.24,1.01-2.24,2.24-2.24h16.11c1.24,0,2.24,1.01,2.24,2.24
			v68.16c0,1.24-1.01,2.24-2.24,2.24h-16.11C122.18,111.24,121.18,110.23,121.18,108.99z"/>
		<path d="M209.36,111.24c-1.24,0-2.24-1.01-2.24-2.24V70.81c0-4.87-1.08-8.54-3.25-11.02s-5.24-3.72-9.22-3.72
			c-3.98,0-7.12,1.24-9.42,3.72s-3.46,6.15-3.46,11.02v38.18c0,1.24-1.01,2.24-2.24,2.24h-16.11c-1.24,0-2.24-1.01-2.24-2.24V40.83
			c0-1.24,1.01-2.24,2.24-2.24h16.11c1.24,0,2.24,1.01,2.24,2.24v2.21c0,2,2.41,2.96,3.82,1.54c0.01-0.01,0.03-0.03,0.04-0.04
			c1.4-1.41,2.96-2.66,4.68-3.75c1.72-1.09,3.61-1.96,5.69-2.59c2.08-0.64,4.43-0.96,7.05-0.96c7.86,0,13.94,2.4,18.23,7.18
			c4.29,4.79,6.44,11.39,6.44,19.79v44.79c0,1.24-1.01,2.24-2.24,2.24H209.36z"/>
		<path d="M291.7,110.2l-16.77-26.23c-0.79-1.23-2.52-1.39-3.52-0.33l-4.59,4.86c-0.39,0.42-0.61,0.97-0.61,1.54v18.95
			c0,1.24-1.01,2.24-2.24,2.24h-16.11c-1.24,0-2.24-1.01-2.24-2.24V14.53c0-1.24,1.01-2.24,2.24-2.24h16.11
			c1.24,0,2.24,1.01,2.24,2.24v44.69c0,2.05,2.52,3.03,3.9,1.51l19.56-21.42c0.43-0.47,1.03-0.73,1.66-0.73h18.39
			c1.98,0,2.99,2.38,1.61,3.81L288.59,65.9c-0.73,0.75-0.84,1.91-0.27,2.78l25.38,39.09c0.97,1.49-0.1,3.47-1.88,3.47h-18.22
			C292.83,111.24,292.11,110.85,291.7,110.2z"/>
		<path d="M432,111.3c-2.62,0.77-5.65,1.15-9.08,1.15c-3.16,0-6.03-0.34-8.61-1.02c-2.58-0.68-4.79-1.88-6.64-3.59
			c-1.85-1.72-3.3-3.95-4.34-6.71c-1.04-2.76-1.56-6.26-1.56-10.5V58.45c0-1.24-1.01-2.24-2.24-2.24h-4.18
			c-1.24,0-2.24-1.01-2.24-2.24V40.83c0-1.24,1.01-2.24,2.24-2.24h4.18c1.24,0,2.24-1.01,2.24-2.24V22.26
			c0-1.24,1.01-2.24,2.24-2.24h16.11c1.24,0,2.24,1.01,2.24,2.24v14.08c0,1.24,1.01,2.24,2.24,2.24h12.59
			c1.24,0,2.24,1.01,2.24,2.24v13.13c0,1.24-1.01,2.24-2.24,2.24h-12.59c-1.24,0-2.24,1.01-2.24,2.24v28.79
			c0,4.7,2.21,7.05,6.64,7.05c2.48,0,4.86-0.4,7.13-1.22c1.48-0.53,3.04,0.53,3.04,2.1v11.75c0,0.85-0.48,1.62-1.24,2.01
			C436.12,109.89,434.13,110.68,432,111.3z"/>
	</g>
	<g>
		<g>
			<path d="M380.91,81.47l-0.01,0.57c-0.02,1.06-0.1,2.1-0.24,3.14c-0.81,6.22-1.47,12.46-1.47,18.73v4.18
				c0,1.96-2.5,2.73-3.65,1.15c-1.52-2.1-2.74-4.49-3.6-7.02c0,0,0,0,0,0c-5.22,4.95-11.94,7.7-19.1,7.82
				c-15.81,0.28-29.08-12.75-29.08-28.57c0-5.78,1.73-11.29,4.97-16.04l-0.02-0.03l0.77-1.03c0,0,0-0.01,0.01-0.01l1.36-1.82
				l0.06,0.07c1.18-1.34,2.5-2.56,3.92-3.66l-0.03-0.06l1.38-0.96l1.44-0.98l0.03,0.05c4.42-2.66,9.46-4.08,14.68-4.08
				c5.54,0,10.88,1.58,15.47,4.56c0,0,0,0,0,0c-0.43,1.19-1.01,2.34-1.73,3.43c-0.18,0.27-0.38,0.55-0.61,0.83
				c-0.19,0.25-0.39,0.51-0.64,0.8c-0.22,0.25-0.46,0.5-0.66,0.73c-0.16,0.16-0.33,0.32-0.58,0.55c-0.09,0.1-0.21,0.21-0.39,0.37
				c-0.18,0.17-0.38,0.32-0.62,0.51c-0.22,0.18-0.45,0.34-0.69,0.51c-0.61,0.45-1.23,0.83-1.85,1.15v0.01
				c-0.18,0.09-0.35,0.18-0.54,0.26c-2.21-1.09-4.67-1.66-7.18-1.66c-2.54,0-4.94,0.56-7.18,1.67c-0.18,0.07-0.37,0.16-0.55,0.26
				h-0.01c-2.4,1.27-4.46,3.14-5.97,5.39l-0.06,0.09c-0.71,1.06-1.28,2.19-1.71,3.38c-0.65,1.71-0.99,3.52-1.03,5.38
				c-0.16,8.74,6.79,16.28,15.52,16.78c9.54,0.55,17.47-7.05,17.47-16.47c0-1.95-0.34-3.86-1.02-5.66l0.69-0.48l1.38-0.95
				l-0.02-0.03c0.17-0.14,0.35-0.27,0.51-0.41c0.74-0.61,1.49-1.28,2.25-2.05c0.54-0.55,1.04-1.1,1.51-1.65
				c0.16-0.19,0.31-0.38,0.46-0.56c0.21-0.26,0.42-0.53,0.61-0.78c0.55-0.73,1.06-1.49,1.54-2.26c1.46,2.39,2.55,4.96,3.26,7.68
				C380.6,76.64,380.91,79.05,380.91,81.47z"/>
			<path d="M380.9,51.33c0.09,5.47-1.34,10.72-4.16,15.33c-0.48,0.78-0.99,1.53-1.54,2.26c-0.18,0.25-0.4,0.51-0.61,0.78
				c-0.15,0.18-0.3,0.37-0.46,0.56c-0.47,0.55-0.97,1.1-1.51,1.65c-0.77,0.77-1.51,1.44-2.25,2.05c-0.16,0.14-0.34,0.27-0.51,0.41
				l0.02,0.03l-1.38,0.95l-0.69,0.48l-0.71,0.49l-0.05-0.06c-4.42,2.69-9.47,4.11-14.72,4.11c-5.54,0-10.88-1.58-15.47-4.58
				c0.43-1.19,1.01-2.32,1.71-3.38l0.06-0.09c1.51-2.25,3.57-4.13,5.97-5.39h0.01c0.18-0.1,0.37-0.19,0.55-0.26
				c2.24,1.09,4.64,1.65,7.18,1.65c2.48,0,4.96-0.57,7.18-1.66c0.18-0.08,0.35-0.17,0.54-0.26v-0.01c0.62-0.32,1.25-0.71,1.85-1.15
				c0.24-0.17,0.47-0.33,0.69-0.51c0.24-0.19,0.43-0.34,0.62-0.51c0.18-0.16,0.3-0.26,0.39-0.37c0.25-0.23,0.42-0.39,0.58-0.55
				c0.21-0.23,0.45-0.48,0.66-0.73c0.25-0.29,0.45-0.55,0.64-0.8c0.23-0.29,0.42-0.56,0.61-0.83c0.72-1.09,1.29-2.24,1.73-3.43
				c0.75-2.02,1.1-4.17,1.01-6.37c-0.34-8.4-7.19-15.34-15.59-15.78c-5.02-0.26-9.84,1.74-13.2,5.5c-2.63,2.94-6.86,3.6-10.14,1.63
				l-0.24-0.14c-0.98-0.63-1.67-1.6-1.91-2.74c-0.24-1.11-0.05-2.23,0.55-3.19l0.07-0.11c5.49-8.46,15.17-13.44,25.22-13.02
				C368.66,23.91,380.66,36.24,380.9,51.33z"/>
			<linearGradient id="SVGID_1_" gradientUnits="userSpaceOnUse" x1="361.1511" y1="74.995" x2="331.0005" y2="64.3937">
				<stop  offset="0" style="stop-color:#000000"/>
				<stop  offset="0.2126" style="stop-color:#030303"/>
				<stop  offset="0.3946" style="stop-color:#0E0E0E"/>
				<stop  offset="0.5653" style="stop-color:#202020"/>
				<stop  offset="0.7291" style="stop-color:#383838"/>
				<stop  offset="0.8867" style="stop-color:#585858"/>
				<stop  offset="1" style="stop-color:#747474"/>
			</linearGradient>
			<path class="st1" d="M362.96,78.3c-3.34,1.36-6.93,2.07-10.62,2.07c-5.54,0-10.88-1.58-15.47-4.58c0.43-1.19,1.01-2.32,1.71-3.38
				l0.06-0.09c1.51-2.25,3.57-4.13,5.97-5.39h0.01c0.18-0.1,0.37-0.19,0.55-0.26c2.24,1.09,4.64,1.65,7.18,1.65
				c2.48,0,4.96-0.57,7.18-1.66c0.18-0.08,0.35-0.17,0.54-0.26v-0.01c0.62-0.32,1.25-0.71,1.85-1.15c0.05-0.03,0.09-0.07,0.14-0.09
				L362.96,78.3z"/>
			<line class="st2" x1="362.96" y1="78.3" x2="362.04" y2="65.12"/>
			<linearGradient id="SVGID_3_" gradientUnits="userSpaceOnUse" x1="374.7872" y1="89.5329" x2="359.3358" y2="67.1778">
				<stop  offset="0" style="stop-color:#000000"/>
				<stop  offset="0.1506" style="stop-color:#090909"/>
				<stop  offset="0.3919" style="stop-color:#202020"/>
				<stop  offset="0.6939" style="stop-color:#464646"/>
				<stop  offset="1" style="stop-color:#747474"/>
			</linearGradient>
			<path class="st3" d="M380.91,81.47l-0.01,0.57c-0.02,1.05-0.1,2.1-0.24,3.13c-0.43,3.42-0.83,6.83-1.1,10.26H361.1
				c4.64-2.93,7.73-8.09,7.73-13.97c0-1.95-0.34-3.86-1.02-5.66l0.69-0.48l1.38-0.95l-0.02-0.03c0.17-0.14,0.35-0.27,0.51-0.41
				c0.74-0.61,1.49-1.28,2.25-2.05c0.54-0.55,1.04-1.1,1.51-1.65c0.16-0.19,0.31-0.38,0.46-0.56c0.21-0.26,0.42-0.53,0.61-0.78
				c0.55-0.73,1.06-1.49,1.54-2.26c1.46,2.39,2.55,4.96,3.26,7.68C380.6,76.64,380.91,79.05,380.91,81.47z"/>
			<line class="st2" x1="339.03" y1="71.77" x2="332.99" y2="60.5"/>
		</g>
	</g>
</g>
</svg>
