<?xml version="1.0" encoding="utf-8"?>
<!-- Generator: Adobe Illustrator 25.2.0, SVG Export Plug-In . SVG Version: 6.00 Build 0)  -->
<svg version="1.1" id="Layer_1" xmlns="http://www.w3.org/2000/svg" xmlns:xlink="http://www.w3.org/1999/xlink" x="0px" y="0px"
	 viewBox="0 0 477.96 124.75" style="enable-background:new 0 0 477.96 124.75;" xml:space="preserve">
<style type="text/css">
	.st0{fill:#FFFFFF;}
	.st1{fill:url(#SVGID_1_);}
	.st2{fill:none;}
	.st3{fill:url(#SVGID_3_);}
	.st4{opacity:0.65;fill:#084556;}
	.st5{fill:url(#SVGID_4_);}
	.st6{opacity:0.89;}
	.st7{clip-path:url(#SVGID_5_);}
	.st8{opacity:0.22;}
	.st9{opacity:0.23;fill:#190114;}
	.st10{fill:#EBEBEB;}
	.st11{opacity:0.35;}
	.st12{clip-path:url(#SVGID_6_);}
	.st13{fill:#9B9B9A;}
	.st14{fill:url(#SVGID_7_);}
	.st15{fill:#B0B0B0;}
	.st16{fill:url(#SVGID_9_);}
	.st17{fill:url(#SVGID_10_);}
	.st18{fill:url(#SVGID_11_);}
	.st19{fill:url(#SVGID_12_);}
	.st20{fill:url(#SVGID_13_);}
	.st21{fill:url(#SVGID_14_);}
	.st22{fill:url(#SVGID_15_);}
	.st23{fill:url(#SVGID_16_);}
	.st24{fill:url(#SVGID_17_);}
	.st25{fill:url(#SVGID_18_);}
	.st26{fill:url(#SVGID_19_);}
	.st27{fill:url(#SVGID_20_);}
	.st28{fill:url(#SVGID_21_);}
	.st29{opacity:0.22;clip-path:url(#SVGID_23_);}
	.st30{fill:url(#SVGID_24_);}
	.st31{fill:url(#SVGID_25_);}
	.st32{fill:url(#SVGID_26_);}
	.st33{fill:url(#SVGID_27_);}
	.st34{fill:url(#SVGID_28_);}
	.st35{fill:url(#SVGID_29_);}
	.st36{fill:url(#SVGID_30_);}
	.st37{fill:url(#SVGID_31_);}
	.st38{opacity:0.22;clip-path:url(#SVGID_33_);}
	.st39{fill:url(#SVGID_34_);}
	.st40{fill:url(#SVGID_35_);}
	.st41{fill:url(#SVGID_36_);}
	.st42{fill:url(#SVGID_37_);}
	.st43{fill:url(#SVGID_38_);}
	.st44{fill:url(#SVGID_39_);}
	.st45{fill:url(#SVGID_40_);}
	.st46{opacity:0.82;}
	.st47{clip-path:url(#SVGID_41_);}
	.st48{clip-path:url(#SVGID_42_);}
	.st49{clip-path:url(#SVGID_43_);}
	.st50{clip-path:url(#SVGID_44_);}
	.st51{clip-path:url(#SVGID_45_);}
	.st52{opacity:0.2;}
	.st53{fill:none;stroke:#1D1D1B;stroke-width:0.7876;stroke-miterlimit:10;}
	.st54{fill:url(#SVGID_46_);}
	.st55{fill:url(#SVGID_48_);}
	.st56{fill:url(#SVGID_49_);}
	.st57{fill:url(#SVGID_50_);}
	.st58{fill:url(#SVGID_51_);}
	.st59{fill:url(#SVGID_52_);}
	.st60{fill:url(#SVGID_54_);}
	.st61{fill:url(#SVGID_55_);}
	.st62{fill:url(#SVGID_56_);}
	.st63{fill:url(#SVGID_57_);}
	.st64{fill:url(#SVGID_58_);}
	.st65{fill:url(#SVGID_60_);}
	.st66{fill:url(#SVGID_61_);}
	.st67{fill:url(#SVGID_62_);}
	.st68{fill:url(#SVGID_63_);}
	.st69{fill:url(#SVGID_64_);}
	.st70{fill:url(#SVGID_66_);}
	.st71{fill:url(#SVGID_67_);}
	.st72{fill:url(#SVGID_68_);}
	.st73{fill:url(#SVGID_69_);}
	.st74{fill:url(#SVGID_70_);}
	.st75{fill:url(#SVGID_72_);}
	.st76{fill:url(#SVGID_73_);}
	.st77{fill:none;stroke:#1D1D1B;stroke-width:1.1203;stroke-miterlimit:10;}
	.st78{fill:#C9B99E;}
	.st79{fill:none;stroke:#1D1D1B;stroke-width:0.4061;stroke-miterlimit:10;}
	.st80{fill:url(#SVGID_74_);}
	.st81{fill:url(#SVGID_75_);}
	.st82{fill:url(#SVGID_76_);}
	.st83{fill:url(#SVGID_77_);}
	.st84{fill:url(#SVGID_78_);}
	.st85{fill:url(#SVGID_79_);}
	.st86{fill:url(#SVGID_80_);}
	.st87{fill:url(#SVGID_81_);}
	.st88{fill:url(#SVGID_82_);}
	.st89{fill:url(#SVGID_83_);}
	.st90{fill:url(#SVGID_84_);}
	.st91{opacity:0.48;}
	.st92{fill:none;stroke:#3C3C3B;stroke-miterlimit:10;}
	.st93{fill:url(#SVGID_85_);}
	.st94{fill:url(#SVGID_86_);}
	.st95{fill:url(#SVGID_87_);}
	.st96{fill:url(#SVGID_88_);}
	.st97{fill:url(#SVGID_89_);}
	.st98{fill:none;stroke:#FFFFFF;stroke-width:28;stroke-miterlimit:10;}
	.st99{clip-path:url(#SVGID_91_);}
	.st100{fill:#004D56;}
	.st101{fill:#1D1D1B;}
	.st102{fill:#2FAA66;}
	.st103{fill:#1D71B6;}
	.st104{fill:url(#SVGID_94_);}
	.st105{fill:url(#SVGID_95_);}
	.st106{fill:url(#SVGID_96_);}
	.st107{fill:url(#SVGID_97_);}
	.st108{fill:url(#SVGID_98_);}
	.st109{fill:url(#SVGID_99_);}
	.st110{fill:url(#SVGID_100_);}
	.st111{fill:url(#SVGID_101_);}
	.st112{fill:url(#SVGID_102_);}
	.st113{fill:url(#SVGID_103_);}
	.st114{stroke:#FFFFFF;stroke-width:0.75;stroke-miterlimit:10;}
	.st115{fill:url(#SVGID_104_);}
	.st116{fill:url(#SVGID_105_);}
	.st117{fill:url(#SVGID_106_);}
	.st118{fill:url(#SVGID_107_);}
	.st119{fill:url(#SVGID_108_);}
	.st120{fill:url(#SVGID_109_);}
</style>
<rect x="0" width="477.96" height="124.75"/>
<g>
	<g>
		<g>
			<path class="st0" d="M38.5,108.99V18.6c0-1.24,1.01-2.24,2.24-2.24h16.38c1.24,0,2.24,1.01,2.24,2.24v71.55
				c0,1.24,1.01,2.24,2.24,2.24h42.81c1.24,0,2.24,1.01,2.24,2.24v14.35c0,1.24-1.01,2.24-2.24,2.24H40.74
				C39.5,111.24,38.5,110.23,38.5,108.99z"/>
			<path class="st0" d="M120.64,28.34V14.53c0-1.24,1.01-2.24,2.24-2.24h17.2c1.24,0,2.24,1.01,2.24,2.24v13.81
				c0,1.24-1.01,2.24-2.24,2.24h-17.2C121.64,30.59,120.64,29.58,120.64,28.34z M121.18,108.99V40.83c0-1.24,1.01-2.24,2.24-2.24
				h16.11c1.24,0,2.24,1.01,2.24,2.24v68.16c0,1.24-1.01,2.24-2.24,2.24h-16.11C122.18,111.24,121.18,110.23,121.18,108.99z"/>
			<path class="st0" d="M209.36,111.24c-1.24,0-2.24-1.01-2.24-2.24V70.81c0-4.87-1.08-8.54-3.25-11.02s-5.24-3.72-9.22-3.72
				c-3.98,0-7.12,1.24-9.42,3.72s-3.46,6.15-3.46,11.02v38.18c0,1.24-1.01,2.24-2.24,2.24h-16.11c-1.24,0-2.24-1.01-2.24-2.24V40.83
				c0-1.24,1.01-2.24,2.24-2.24h16.11c1.24,0,2.24,1.01,2.24,2.24v2.21c0,2,2.41,2.96,3.82,1.54c0.01-0.01,0.03-0.03,0.04-0.04
				c1.4-1.41,2.96-2.66,4.68-3.75c1.72-1.09,3.61-1.96,5.69-2.59c2.08-0.64,4.43-0.96,7.05-0.96c7.86,0,13.94,2.4,18.23,7.18
				c4.29,4.79,6.44,11.39,6.44,19.79v44.79c0,1.24-1.01,2.24-2.24,2.24H209.36z"/>
			<path class="st0" d="M291.7,110.2l-16.77-26.23c-0.79-1.23-2.52-1.39-3.52-0.33l-4.59,4.86c-0.39,0.42-0.61,0.97-0.61,1.54v18.95
				c0,1.24-1.01,2.24-2.24,2.24h-16.11c-1.24,0-2.24-1.01-2.24-2.24V14.53c0-1.24,1.01-2.24,2.24-2.24h16.11
				c1.24,0,2.24,1.01,2.24,2.24v44.69c0,2.05,2.52,3.03,3.9,1.51l19.56-21.42c0.43-0.47,1.03-0.73,1.66-0.73h18.39
				c1.98,0,2.99,2.38,1.61,3.81L288.59,65.9c-0.73,0.75-0.84,1.91-0.27,2.78l25.38,39.09c0.97,1.49-0.1,3.47-1.88,3.47h-18.22
				C292.83,111.24,292.11,110.85,291.7,110.2z"/>
			<path class="st0" d="M432,111.3c-2.62,0.77-5.65,1.15-9.08,1.15c-3.16,0-6.03-0.34-8.61-1.02c-2.58-0.68-4.79-1.88-6.64-3.59
				c-1.85-1.72-3.3-3.95-4.34-6.71c-1.04-2.76-1.56-6.26-1.56-10.5V58.45c0-1.24-1.01-2.24-2.24-2.24h-4.18
				c-1.24,0-2.24-1.01-2.24-2.24V40.83c0-1.24,1.01-2.24,2.24-2.24h4.18c1.24,0,2.24-1.01,2.24-2.24V22.26
				c0-1.24,1.01-2.24,2.24-2.24h16.11c1.24,0,2.24,1.01,2.24,2.24v14.08c0,1.24,1.01,2.24,2.24,2.24h12.59
				c1.24,0,2.24,1.01,2.24,2.24v13.13c0,1.24-1.01,2.24-2.24,2.24h-12.59c-1.24,0-2.24,1.01-2.24,2.24v28.79
				c0,4.7,2.21,7.05,6.64,7.05c2.48,0,4.86-0.4,7.13-1.22c1.48-0.53,3.04,0.53,3.04,2.1v11.75c0,0.85-0.48,1.62-1.24,2.01
				C436.12,109.89,434.13,110.68,432,111.3z"/>
		</g>
	</g>
	<g>
		<path class="st0" d="M381.4,80.86l-0.01,0.58c-0.02,1.07-0.1,2.14-0.24,3.19c-0.82,6.33-1.49,12.67-1.49,19.05v4.25
			c0,1.99-2.54,2.78-3.71,1.17c-1.54-2.13-2.79-4.57-3.66-7.14c0,0,0,0,0,0c-5.31,5.03-12.15,7.83-19.43,7.96
			c-16.09,0.28-29.58-12.97-29.58-29.06c0-5.88,1.76-11.48,5.06-16.32l-0.02-0.03l0.78-1.05c0,0,0-0.01,0.01-0.01l1.38-1.85
			l0.06,0.07c1.2-1.36,2.55-2.6,3.99-3.72l-0.03-0.06l1.41-0.98l1.46-1l0.03,0.05c4.5-2.71,9.62-4.15,14.94-4.15
			c5.64,0,11.07,1.6,15.74,4.64c0,0,0,0,0,0c-0.44,1.21-1.02,2.38-1.76,3.49c-0.19,0.28-0.38,0.56-0.62,0.85
			c-0.2,0.26-0.4,0.52-0.65,0.81c-0.22,0.26-0.46,0.51-0.67,0.74c-0.16,0.16-0.34,0.33-0.59,0.56c-0.09,0.1-0.21,0.21-0.4,0.37
			c-0.19,0.17-0.38,0.33-0.63,0.52c-0.22,0.19-0.45,0.35-0.7,0.52c-0.62,0.45-1.26,0.85-1.88,1.17v0.01
			c-0.19,0.09-0.36,0.19-0.55,0.27c-2.24-1.1-4.75-1.69-7.3-1.69c-2.58,0-5.02,0.57-7.3,1.7c-0.19,0.07-0.37,0.16-0.56,0.27h-0.01
			c-2.44,1.29-4.53,3.2-6.07,5.49l-0.06,0.09c-0.72,1.08-1.3,2.23-1.74,3.44c-0.66,1.74-1.01,3.59-1.04,5.48
			c-0.16,8.9,6.91,16.56,15.79,17.07c9.7,0.56,17.77-7.18,17.77-16.76c0-1.99-0.35-3.93-1.03-5.75l0.7-0.49l1.41-0.96l-0.02-0.03
			c0.17-0.14,0.36-0.28,0.52-0.42c0.76-0.62,1.51-1.3,2.29-2.08c0.55-0.56,1.06-1.12,1.53-1.67c0.16-0.2,0.31-0.38,0.46-0.57
			c0.21-0.27,0.43-0.53,0.62-0.79c0.56-0.74,1.08-1.51,1.57-2.3c1.49,2.43,2.59,5.04,3.31,7.81C381.09,75.95,381.4,78.4,381.4,80.86
			z"/>
		<path class="st0" d="M381.39,50.2c0.09,5.57-1.36,10.9-4.23,15.59c-0.49,0.79-1.01,1.56-1.57,2.3c-0.19,0.26-0.41,0.52-0.62,0.79
			c-0.15,0.19-0.3,0.37-0.46,0.57c-0.48,0.56-0.99,1.12-1.53,1.67c-0.78,0.78-1.53,1.46-2.29,2.08c-0.16,0.14-0.35,0.28-0.52,0.42
			l0.02,0.03l-1.41,0.96l-0.7,0.49l-0.72,0.5l-0.05-0.06c-4.5,2.73-9.64,4.18-14.97,4.18c-5.64,0-11.07-1.6-15.74-4.66
			c0.44-1.21,1.02-2.36,1.74-3.44l0.06-0.09c1.53-2.29,3.63-4.2,6.07-5.49h0.01c0.19-0.1,0.37-0.2,0.56-0.27
			c2.28,1.1,4.72,1.67,7.3,1.67c2.52,0,5.05-0.58,7.3-1.69c0.19-0.08,0.36-0.17,0.55-0.27V65.5c0.63-0.33,1.27-0.72,1.88-1.17
			c0.24-0.17,0.48-0.34,0.7-0.52c0.24-0.2,0.44-0.35,0.63-0.52c0.19-0.16,0.3-0.27,0.4-0.37c0.26-0.23,0.43-0.4,0.59-0.56
			c0.21-0.23,0.45-0.49,0.67-0.74c0.26-0.29,0.45-0.56,0.65-0.81c0.23-0.29,0.43-0.57,0.62-0.85c0.73-1.1,1.31-2.28,1.76-3.49
			c0.77-2.06,1.12-4.24,1.02-6.47c-0.35-8.54-7.31-15.6-15.86-16.05c-5.1-0.27-10.01,1.77-13.43,5.59
			c-2.67,2.99-6.97,3.66-10.31,1.66l-0.24-0.14c-1-0.64-1.7-1.63-1.94-2.79c-0.24-1.13-0.05-2.27,0.56-3.24l0.07-0.12
			c5.58-8.6,15.43-13.67,25.66-13.24C368.94,22.31,381.14,34.85,381.39,50.2z"/>
		<linearGradient id="SVGID_1_" gradientUnits="userSpaceOnUse" x1="361.3025" y1="74.2728" x2="330.6338" y2="63.4893">
			<stop  offset="0.1028" style="stop-color:#FFFFFF"/>
			<stop  offset="1" style="stop-color:#858585"/>
		</linearGradient>
		<path class="st1" d="M363.14,77.63c-3.39,1.38-7.04,2.1-10.8,2.1c-5.64,0-11.07-1.6-15.74-4.66c0.44-1.21,1.02-2.36,1.74-3.44
			l0.06-0.09c1.53-2.29,3.63-4.2,6.07-5.49h0.01c0.19-0.1,0.37-0.2,0.56-0.27c2.28,1.1,4.72,1.67,7.3,1.67
			c2.52,0,5.05-0.58,7.3-1.69c0.19-0.08,0.36-0.17,0.55-0.27V65.5c0.63-0.33,1.27-0.72,1.88-1.17c0.05-0.03,0.09-0.07,0.14-0.09
			L363.14,77.63z"/>
		<line class="st2" x1="363.14" y1="77.63" x2="362.21" y2="64.23"/>
		<linearGradient id="SVGID_3_" gradientUnits="userSpaceOnUse" x1="364.9556" y1="65.672" x2="373.6685" y2="93.098">
			<stop  offset="0" style="stop-color:#858585"/>
			<stop  offset="0.0871" style="stop-color:#9A9A9A"/>
			<stop  offset="0.2609" style="stop-color:#BEBEBE"/>
			<stop  offset="0.4359" style="stop-color:#DBDBDB"/>
			<stop  offset="0.6102" style="stop-color:#EFEFEF"/>
			<stop  offset="0.7837" style="stop-color:#FBFBFB"/>
			<stop  offset="0.9555" style="stop-color:#FFFFFF"/>
		</linearGradient>
		<path class="st3" d="M381.4,80.86l-0.01,0.58c-0.02,1.07-0.1,2.14-0.24,3.19c-0.44,3.48-0.85,6.95-1.12,10.44h-18.77
			c4.72-2.98,7.86-8.23,7.86-14.21c0-1.99-0.35-3.93-1.03-5.75l0.7-0.49l1.41-0.96l-0.02-0.03c0.17-0.14,0.36-0.28,0.52-0.42
			c0.76-0.62,1.51-1.3,2.29-2.08c0.55-0.56,1.06-1.12,1.53-1.67c0.16-0.2,0.31-0.38,0.46-0.57c0.21-0.27,0.43-0.53,0.62-0.79
			c0.56-0.74,1.08-1.51,1.57-2.3c1.49,2.43,2.59,5.04,3.31,7.81C381.09,75.95,381.4,78.4,381.4,80.86z"/>
		<line class="st2" x1="338.8" y1="70.99" x2="332.66" y2="59.53"/>
	</g>
</g>
</svg>
